<svg id="a611f933-c905-47ab-993b-9b8f8801b834" data-name="Layer 1" xmlns="http://www.w3.org/2000/svg" viewBox="0 0 606.79 70.2"><defs><style>.fe4a2936-2da2-490f-b5af-fa1899367861{fill:#25ca7f;fill-rule:evenodd;}</style></defs><path class="fe4a2936-2da2-490f-b5af-fa1899367861" d="M705,145.51v0h0s0,.09.06.09l0-.14a.34.34,0,0,1,0-.1v.09Z" transform="translate(-332.26 -110.58)"/><path class="fe4a2936-2da2-490f-b5af-fa1899367861" d="M705,145.42v0s0,0,0-.08A.49.49,0,0,0,705,145.42Z" transform="translate(-332.26 -110.58)"/><path class="fe4a2936-2da2-490f-b5af-fa1899367861" d="M705,145.08l0,.25v0a.85.85,0,0,1,0,.17.3.3,0,0,1,0,.1l0-.1v0h0s.06,0,.05.07h0v-.1l0-.13,0-.25,0-.5.06-1-.13,1Z" transform="translate(-332.26 -110.58)"/><path class="fe4a2936-2da2-490f-b5af-fa1899367861" d="M704.07,157.9a26.62,26.62,0,0,1-5.7,10.53c-5.3,6.09-13.27,9.18-21.19,9.88a33.14,33.14,0,0,1-11.79-.94,35.8,35.8,0,0,1-5.61-2,42.7,42.7,0,0,1-5.19-2.89c-6.72-4.35-12.29-10.35-17.4-16.66-2.57-3.17-5.12-6.38-7.6-9.63s-4.89-6.58-7.52-9.8a69.16,69.16,0,0,0-8.69-9,30.79,30.79,0,0,0-11.06-6.22c-.72-.22-1.49-.4-2.23-.55h0c-.28,0-.57-.12-.84-.16a25.2,25.2,0,0,0-3.2-.34,36,36,0,0,0-6.31.22,30.81,30.81,0,0,0-5.27,1.16,47.72,47.72,0,0,0-6.54,3.12,25.31,25.31,0,0,0-8.21,9.36,33,33,0,0,0-3.41,11.84,35.5,35.5,0,0,1,1.54-5.94,29.8,29.8,0,0,1,2.52-5.54,24.87,24.87,0,0,1,6.14-7.08,31.5,31.5,0,0,0-4.92,8.47,33.44,33.44,0,0,0-1.81,17.5,28.32,28.32,0,0,0,2.89,8.79,21.29,21.29,0,0,0,5.51,6.69,27,27,0,0,0,13.22,5.56,29.19,29.19,0,0,0,9.56-.31,31.31,31.31,0,0,0,3.38-.86s-1.22.25-3.43.46a31.24,31.24,0,0,1-9.29-.55,27.09,27.09,0,0,1-12-5.94c-3.85-3.28-6.36-8.47-7.28-14.25a33.92,33.92,0,0,1,1.32-16.35,30.86,30.86,0,0,1,6.95-11.61l.29-.28a26.48,26.48,0,0,1,9.07-2.42A38,38,0,0,1,594,122a27.34,27.34,0,0,0-7.15,3.67,26.26,26.26,0,0,0-8.67,11A29.9,29.9,0,0,0,576,150.38a24.82,24.82,0,0,0,1.41,6.77A15.69,15.69,0,0,0,581,163a15.42,15.42,0,0,1-3.27-5.94,24.45,24.45,0,0,1-1-6.69,28.69,28.69,0,0,1,2.82-13.05,24.36,24.36,0,0,1,8.58-9.89,26.73,26.73,0,0,1,12.37-4.07l1.22-.13a29.75,29.75,0,0,1,10.12,6A65.55,65.55,0,0,1,620,138c2,2.54,4,5.16,5.92,7.79-3.71,5-7.46,9.92-12,14a30.55,30.55,0,0,1-8.18,5.39,26.21,26.21,0,0,1-9.64,2.13A26.32,26.32,0,0,0,606,165.9a31.75,31.75,0,0,0,8.82-5A92.8,92.8,0,0,0,627.59,148c2,2.71,4.14,5.38,6.26,8-5,6.32-10.42,12.27-17.05,16.57A36.36,36.36,0,0,1,606,177.49a31.12,31.12,0,0,1-5.86.93,33.89,33.89,0,0,1-6-.13c-7.92-.78-15.81-4-21.12-10.08a27.17,27.17,0,0,1-5.77-10.5,32.25,32.25,0,0,1-1-12,.43.43,0,0,1,0,.05,32.15,32.15,0,0,1,1-12.13,27.3,27.3,0,0,1,5.77-10.5,28.24,28.24,0,0,1,9.59-7,36.55,36.55,0,0,1,11.54-3,32.94,32.94,0,0,1,11.8.79,36.14,36.14,0,0,1,5.62,2,40,40,0,0,1,5.19,2.87c6.72,4.35,12.22,10.39,17.23,16.79,0,0,12.07,15.49,15.38,18.26l.34.37-.1-.18c.82.67,1.63,1.34,2.47,2a49.77,49.77,0,0,0,14.47,7.52c5.18,1.6,10.9,2.28,16.14.51a15.39,15.39,0,0,0,6.72-4.5,18.56,18.56,0,0,0,3.71-7.12,18.31,18.31,0,0,1-4,6.88,14.63,14.63,0,0,1-6.67,4.07c-5.09,1.49-10.56.6-15.48-1.16a47.94,47.94,0,0,1-13.64-7.85c-2.62-2.12-7.95-8.5-7.95-8.5l-.06-.09c.32-.42.64-.83,1-1.25,1.63-2.13,3.27-4.24,4.95-6.29,3.71-4.5,7.77-8.85,12.57-11.92a20.52,20.52,0,0,1,8.7-2,17.67,17.67,0,0,1,9,2.65,24,24,0,0,1,7,6.66,25.15,25.15,0,0,1,4.1,8.91,25.5,25.5,0,0,0-3.52-9.3,24.86,24.86,0,0,0-6.81-7.43,19.45,19.45,0,0,0-8.43-3.43c.53-.09,1.07-.15,1.61-.2a36.2,36.2,0,0,1,6,0,25,25,0,0,1,11.3,3.46A23.56,23.56,0,0,1,701,134.1a35.79,35.79,0,0,1,3.57,9.49c.14.56.27,1.13.4,1.7-.66-7.9-4.35-16.3-11.43-21a26.78,26.78,0,0,0-11.89-4.12,37.09,37.09,0,0,0-6.32-.12,29,29,0,0,0-3.18.38c-.53.1-1.06.22-1.55.34s-1.05.28-1.56.44a26.85,26.85,0,0,0-4.5,1.87,9.3,9.3,0,0,0-1.95,1.12,38.06,38.06,0,0,0-4.56,3.3,72.39,72.39,0,0,0-8.76,8.93c-1.93,2.3-3.76,4.66-5.58,7l-6.29-8.14c4.81-5.91,10-11.5,16.17-15.74a38.64,38.64,0,0,1,10.53-5.22,32.89,32.89,0,0,1,11.63-1.43c7.85.43,15.85,3.07,21.49,8.73a26.35,26.35,0,0,1,6.34,10,32.18,32.18,0,0,1,1.69,11.92,28.63,28.63,0,0,0-7-22.88A29.59,29.59,0,0,0,688,113.63a39.46,39.46,0,0,0-12.11-2.88A33.52,33.52,0,0,0,663.39,112a41.53,41.53,0,0,0-11.31,5.37c-6.39,4.29-11.64,9.89-16.44,15.69-5-6.2-10.52-12.21-17.42-16.57a42.56,42.56,0,0,0-5.63-3,38.55,38.55,0,0,0-6-2,33.94,33.94,0,0,0-12.65-.59c-8.31,1-16.57,4.72-21.91,11.36a29.25,29.25,0,0,0-5.77,23.41,28.49,28.49,0,0,0,15.62,31.2,37.58,37.58,0,0,0,12.07,3.56,36.13,36.13,0,0,0,6.34.3,32.2,32.2,0,0,0,6.3-.89,38.7,38.7,0,0,0,11.64-5,56.49,56.49,0,0,0,9.77-7.93,104.14,104.14,0,0,0,7.65-8.63c5.07,6.11,10.65,12,17.53,16.39a44.18,44.18,0,0,0,5.61,3,38.24,38.24,0,0,0,6,2.06,33.85,33.85,0,0,0,12.63.73,38,38,0,0,0,12.11-3.41,28.78,28.78,0,0,0,9.89-7.75A29.25,29.25,0,0,0,705,145.77,33.21,33.21,0,0,1,704.07,157.9Z" transform="translate(-332.26 -110.58)"/><path class="fe4a2936-2da2-490f-b5af-fa1899367861" d="M705,145.3h0Z" transform="translate(-332.26 -110.58)"/><path class="fe4a2936-2da2-490f-b5af-fa1899367861" d="M695.22,160.32A21.11,21.11,0,0,1,686.5,169a22.7,22.7,0,0,1-13.41,2A40.1,40.1,0,0,1,659,166.14c-9.1-5.11-16.29-12.36-21.93-19.49-1.41-1.78-2.71-3.62-4.07-5.36s-2.68-3.4-4-5a111,111,0,0,0-7.84-8.4c-5.07-4.87-9.83-8.14-13.43-9.74a17.71,17.71,0,0,0-5.83-1.66,17.83,17.83,0,0,1,5.65,2c3.45,1.78,7.93,5.25,12.7,10.28,2.39,2.51,4.87,5.39,7.39,8.6,1.26,1.6,2.53,3.29,3.8,5.05s2.52,3.62,3.93,5.5c5.58,7.43,12.86,15,22.4,20.41a41,41,0,0,0,15.08,5.13A24.5,24.5,0,0,0,687.52,171a22.71,22.71,0,0,0,9.25-9.81A34.14,34.14,0,0,0,700.1,150a24.29,24.29,0,0,0-.78-9.54,25.48,25.48,0,0,0-3-6.53,31.8,31.8,0,0,0-3.72-4.81,34.92,34.92,0,0,1,3.38,5,26.11,26.11,0,0,1,2.53,6.54,23.83,23.83,0,0,1,.29,9.16A33.51,33.51,0,0,1,695.22,160.32Z" transform="translate(-332.26 -110.58)"/><path class="fe4a2936-2da2-490f-b5af-fa1899367861" d="M932.58,141c-2.32-.93-4.7-1.73-7.06-2.56s-4.71-1.72-7.13-2.41-4.53-1.91-7.35-1.68c.18,2.64,2.63,3.24,4.08,4.51s3.37,2.15,4.59,4a3.34,3.34,0,0,1-2.59.13c-.8-.71-.13-2.12-1.49-2.6-1.66.28-.59,1.8-1.4,2.47-.85.14-.9-.92-1.68-.88-.61-.09-.77.36-1.16.68l-.44,0a40.35,40.35,0,0,1-4.77.39c-7.72-.09-15.44,0-23.17-.25-9.61-.37-19.24-.21-28.86-.25-1.6,0-3.19.08-4.33-.83-1.36.26-2.29,1.17-3.43.69-1-.1-1-1-1.68-1.28-1,0-1.14,1.12-2.15,1.27a5.6,5.6,0,0,1-4.72-1.31,49.33,49.33,0,0,1-4.67-4,20.72,20.72,0,0,0-8.65-5.07c-.23-.08-.54.06-.84.1-1,1,.65,1.48.67,2.29-.26,0-.58.14-.77,0a35.47,35.47,0,0,1-6.07-3.77,2,2,0,0,0-1.88-.39c-.63,1.47,1.28,2.05,1.08,3.47-2-.15-3.75-1.22-5.68-1.6s-3.69-1.42-5.69-1.32c-.61,1.39,1,1.59,1.13,2.41h.09l-.08.07a.15.15,0,0,0,0-.07c-1.13-.05-2.28,0-3.4-.17a18.25,18.25,0,0,0-6.47-.11,13.14,13.14,0,0,1-3.47-.12c-.94.2-1.26,1-2,1.6-4.35-.38-8.81-.57-13.18.54a1.36,1.36,0,0,0,1,1.3c1.4.34,2.82.64,4.22,1a5.23,5.23,0,0,1,2.61,1.14,4.86,4.86,0,0,1-2.81.94,26.52,26.52,0,0,0-9.91,3.88c-.74.47-1.24,1.14-.37,1.93,5.84.49,11.8.2,17.42,1.75,0,1.42-1.85,1.2-1.67,1.94a1.55,1.55,0,0,0,1,1.92,61.07,61.07,0,0,0,17,4.79,14.61,14.61,0,0,0,6-.79c1.66-.49,3.24-1.15,4.87-1.73.68.55.06,1-.27,1.29-1.43,1.46-2.91,2.87-4.37,4.29-.19,1,.6,1.34,1.47,1.57a9.09,9.09,0,0,0,6.07-2.76A20,20,0,0,0,823,154.5c1.73-2.45,4.15-4.31,6.42-6.31,1.7-1.49,3.94-2.17,6.06-3.19h7l1.77,1.37c1.54.4,1.61-1.07,2.92-1.37,2.23.72,4.78-.07,7.35-.05,7.87.06,15.75,0,23.62.06,11,.09,22,.23,32.94,0a.28.28,0,0,1,0,.09c.58.16.87,1,1.67.95l1.29-.84c.23.1.51.14.58.27.43.79.69,1.75,2,1.47l.1-.1.09,0c.08-.54-.11-1.12.33-1.61.52-.17,1-.33,1.53.13-.31.81-1.11,1.12-1.86,1.48a.36.36,0,0,1,0,.1l-.17,0c-1.87,2.1-4.72,3.4-6.29,5.53.45,1.22,1.28,1.19,2.11,1.15a12.09,12.09,0,0,0,3.62-1c7.13-2.67,14.14-5.61,21.58-7.59a1.72,1.72,0,0,0,1.43-1.22C937.3,142.36,934.8,141.89,932.58,141ZM808,138.75l-.33.21-.34.2c-.3.46,0,.87.29,1.28-.25-.41-.59-.82-.29-1.28l.34-.2.33-.21h0a2.66,2.66,0,0,1,.83.17A2.66,2.66,0,0,0,808,138.75Zm14.89-1.4a1.09,1.09,0,0,1-.86.57,1.11,1.11,0,0,0,.86-.57.79.79,0,0,0,0-.66,5.51,5.51,0,0,0-.37-.61,5.51,5.51,0,0,1,.37.61A.76.76,0,0,1,822.9,137.35Z" transform="translate(-332.26 -110.58)"/><path class="fe4a2936-2da2-490f-b5af-fa1899367861" d="M498.21,143.25a26.47,26.47,0,0,0-9.9-3.88,4.81,4.81,0,0,1-2.81-.94,5.23,5.23,0,0,1,2.61-1.14c1.4-.36,2.81-.66,4.21-1,.64-.15.92-.58,1.05-1.3-4.38-1.11-8.84-.92-13.18-.54-.75-.6-1.08-1.4-2-1.6a13.08,13.08,0,0,1-3.46.12,18.31,18.31,0,0,0-6.48.11c-1.12.14-2.26.12-3.4.17,0,0,0,0,0,.07l-.07-.07h.08c.18-.82,1.74-1,1.13-2.41-2-.1-3.76.95-5.69,1.32s-3.64,1.45-5.67,1.6c-.2-1.42,1.7-2,1.07-3.47a1.93,1.93,0,0,0-1.87.39,35.47,35.47,0,0,1-6.07,3.77c-.2.09-.52,0-.77,0,0-.81,1.65-1.26.66-2.29-.29,0-.61-.18-.83-.1a20.72,20.72,0,0,0-8.65,5.07,50.61,50.61,0,0,1-4.67,4,5.6,5.6,0,0,1-4.72,1.31c-1-.15-1.17-1.25-2.16-1.27-.65.31-.68,1.18-1.68,1.28-1.14.48-2.07-.43-3.43-.69-1.14.91-2.72.82-4.33.83-9.62,0-19.25-.12-28.86.25-7.73.3-15.44.16-23.16.25a40.52,40.52,0,0,1-4.78-.39c-.14,0-.29,0-.44,0-.39-.32-.54-.77-1.15-.68-.79,0-.83,1-1.69.88-.81-.67.27-2.19-1.39-2.47-1.37.48-.69,1.89-1.5,2.6a3.34,3.34,0,0,1-2.59-.13c1.22-1.85,3.13-2.73,4.59-4s3.9-1.87,4.09-4.51c-2.82-.23-5,1-7.36,1.68s-4.76,1.58-7.12,2.41-4.75,1.63-7.07,2.56-4.72,1.35-6.46,2.83a1.71,1.71,0,0,0,1.42,1.22c7.44,2,14.45,4.92,21.58,7.59a12.15,12.15,0,0,0,3.63,1c.82,0,1.65.07,2.11-1.15-1.57-2.13-4.42-3.43-6.3-5.53l-.17,0a.36.36,0,0,0,0-.1c-.75-.36-1.54-.67-1.85-1.48.48-.46,1-.3,1.52-.13.44.49.25,1.07.33,1.61l.1,0,.09.1c1.32.28,1.58-.68,2-1.47.07-.13.36-.17.58-.27l1.29.84c.8.05,1.09-.79,1.67-.95V145c11,.21,21.95.07,32.93,0,7.88-.06,15.75,0,23.62-.06,2.57,0,5.13.77,7.35.05,1.32.3,1.38,1.77,2.93,1.37l1.76-1.37h7c2.11,1,4.36,1.7,6.05,3.19,2.28,2,4.69,3.86,6.42,6.31a20.11,20.11,0,0,0,2.82,2.95,9.08,9.08,0,0,0,6.06,2.76c.88-.23,1.67-.53,1.47-1.57-1.46-1.42-2.94-2.83-4.37-4.29-.33-.33-.95-.74-.26-1.29,1.62.58,3.21,1.24,4.86,1.73a14.68,14.68,0,0,0,6,.79,61.1,61.1,0,0,0,17-4.79,1.55,1.55,0,0,0,1-1.92c.17-.74-1.68-.52-1.68-1.94,5.62-1.55,11.58-1.26,17.42-1.75C499.46,144.39,499,143.72,498.21,143.25Zm-49.81-5.9a.79.79,0,0,1,0-.66,5.6,5.6,0,0,1,.38-.61,5.6,5.6,0,0,0-.38.61.76.76,0,0,0,0,.66,1.08,1.08,0,0,0,.86.57A1.11,1.11,0,0,1,448.4,137.35Zm15.28,3.09c.25-.41.59-.82.28-1.28l-.33-.2-.34-.21a2.54,2.54,0,0,0-.82.17,2.54,2.54,0,0,1,.82-.17h0l.34.21.33.2C464.27,139.62,463.93,140,463.68,140.44Z" transform="translate(-332.26 -110.58)"/></svg>